STARTFONT 2.1
FONT -FontForge-Shadows Into Light-Book-R-Normal--16-160-72-72-P-65-ISO10646-1
SIZE 16 72 72
FONTBOUNDINGBOX 23 26 -3 -7
COMMENT "Generated by fontforge, http://fontforge.sourceforge.net"
COMMENT "Copyright (c) 2010, Kimberly Geswein (kimberlygeswein.com)"
STARTPROPERTIES 39
FOUNDRY "FontForge"
FAMILY_NAME "Shadows Into Light"
WEIGHT_NAME "Book"
SLANT "R"
SETWIDTH_NAME "Normal"
ADD_STYLE_NAME ""
PIXEL_SIZE 16
POINT_SIZE 160
RESOLUTION_X 72
RESOLUTION_Y 72
SPACING "P"
AVERAGE_WIDTH 65
CHARSET_REGISTRY "ISO10646"
CHARSET_ENCODING "1"
FONTNAME_REGISTRY ""
CHARSET_COLLECTIONS "ISO8859-2 ISO8859-9 ISO8859-4 ISO10646-1"
FONT_NAME "ShadowsIntoLight"
FACE_NAME "Shadows Into Light"
COPYRIGHT "Copyright (c) 2010, Kimberly Geswein (kimberlygeswein.com)"
FONT_VERSION "001.000"
FONT_ASCENT 13
FONT_DESCENT 3
UNDERLINE_POSITION 0
UNDERLINE_THICKNESS 0
X_HEIGHT 9
CAP_HEIGHT 10
RAW_ASCENT 799
RAW_DESCENT 200
NORM_SPACE 7
RELATIVE_WEIGHT 40
RELATIVE_SETWIDTH 50
SUPERSCRIPT_X 0
SUPERSCRIPT_Y 7
SUPERSCRIPT_SIZE 10
SUBSCRIPT_X 0
SUBSCRIPT_Y 2
SUBSCRIPT_SIZE 10
AVG_LOWERCASE_WIDTH 59
AVG_UPPERCASE_WIDTH 77
ENDPROPERTIES
CHARS 352
STARTCHAR space
ENCODING 32
SWIDTH 450 0
DWIDTH 7 0
BBX 1 1 0 0
BITMAP
00
ENDCHAR
STARTCHAR exclam
ENCODING 33
SWIDTH 137 0
DWIDTH 2 0
BBX 2 14 0 0
BITMAP
80
80
80
80
80
80
80
80
80
00
00
00
00
40
ENDCHAR
STARTCHAR quotedbl
ENCODING 34
SWIDTH 212 0
DWIDTH 3 0
BBX 3 5 0 8
BITMAP
80
A0
A0
60
60
ENDCHAR
STARTCHAR numbersign
ENCODING 35
SWIDTH 450 0
DWIDTH 7 0
BBX 6 9 1 1
BITMAP
10
50
58
F0
5C
50
70
C8
40
ENDCHAR
STARTCHAR dollar
ENCODING 36
SWIDTH 445 0
DWIDTH 7 0
BBX 7 14 0 -2
BITMAP
10
10
18
70
90
90
7C
12
14
18
30
08
08
08
ENDCHAR
STARTCHAR percent
ENCODING 37
SWIDTH 450 0
DWIDTH 7 0
BBX 7 13 0 0
BITMAP
04
08
68
A8
B0
50
10
16
26
26
20
20
20
ENDCHAR
STARTCHAR ampersand
ENCODING 38
SWIDTH 356 0
DWIDTH 6 0
BBX 5 7 0 2
BITMAP
10
10
18
78
B0
D0
10
ENDCHAR
STARTCHAR quotesingle
ENCODING 39
SWIDTH 155 0
DWIDTH 2 0
BBX 1 5 1 5
BITMAP
80
80
80
80
80
ENDCHAR
STARTCHAR parenleft
ENCODING 40
SWIDTH 291 0
DWIDTH 5 0
BBX 4 13 0 0
BITMAP
10
20
20
40
40
40
80
80
80
80
40
40
30
ENDCHAR
STARTCHAR parenright
ENCODING 41
SWIDTH 241 0
DWIDTH 4 0
BBX 3 12 0 0
BITMAP
80
40
20
20
20
20
20
20
20
20
20
40
ENDCHAR
STARTCHAR asterisk
ENCODING 42
SWIDTH 481 0
DWIDTH 8 0
BBX 7 8 0 1
BITMAP
10
14
98
7E
F8
36
50
50
ENDCHAR
STARTCHAR plus
ENCODING 43
SWIDTH 466 0
DWIDTH 7 0
BBX 7 7 0 2
BITMAP
10
10
10
1E
F0
10
10
ENDCHAR
STARTCHAR comma
ENCODING 44
SWIDTH 112 0
DWIDTH 2 0
BBX 2 4 0 -2
BITMAP
C0
40
40
80
ENDCHAR
STARTCHAR hyphen
ENCODING 45
SWIDTH 399 0
DWIDTH 6 0
BBX 6 2 0 3
BITMAP
1C
E0
ENDCHAR
STARTCHAR period
ENCODING 46
SWIDTH 128 0
DWIDTH 2 0
BBX 2 1 0 0
BITMAP
C0
ENDCHAR
STARTCHAR slash
ENCODING 47
SWIDTH 306 0
DWIDTH 5 0
BBX 4 12 0 -1
BITMAP
10
10
10
20
20
20
20
40
40
40
80
80
ENDCHAR
STARTCHAR zero
ENCODING 48
SWIDTH 308 0
DWIDTH 5 0
BBX 4 9 0 0
BITMAP
20
50
50
90
90
90
50
50
20
ENDCHAR
STARTCHAR one
ENCODING 49
SWIDTH 112 0
DWIDTH 2 0
BBX 1 10 0 0
BITMAP
80
80
80
80
80
80
80
80
80
80
ENDCHAR
STARTCHAR two
ENCODING 50
SWIDTH 512 0
DWIDTH 8 0
BBX 8 9 0 0
BITMAP
38
48
88
08
08
10
11
2E
30
ENDCHAR
STARTCHAR three
ENCODING 51
SWIDTH 461 0
DWIDTH 7 0
BBX 7 11 0 0
BITMAP
38
C8
08
10
3C
62
02
02
04
18
10
ENDCHAR
STARTCHAR four
ENCODING 52
SWIDTH 503 0
DWIDTH 8 0
BBX 8 12 0 0
BITMAP
0C
0C
1C
14
24
25
7E
84
04
04
04
04
ENDCHAR
STARTCHAR five
ENCODING 53
SWIDTH 478 0
DWIDTH 8 0
BBX 7 11 0 0
BITMAP
4E
F0
40
40
58
64
44
08
08
10
20
ENDCHAR
STARTCHAR six
ENCODING 54
SWIDTH 375 0
DWIDTH 6 0
BBX 6 13 0 0
BITMAP
20
40
40
40
40
40
40
9C
A4
A8
C8
50
60
ENDCHAR
STARTCHAR seven
ENCODING 55
SWIDTH 458 0
DWIDTH 7 0
BBX 7 12 0 0
BITMAP
0E
F4
04
04
04
08
08
08
08
08
08
08
ENDCHAR
STARTCHAR eight
ENCODING 56
SWIDTH 333 0
DWIDTH 5 0
BBX 5 11 0 0
BITMAP
30
58
88
88
90
50
20
30
48
48
70
ENDCHAR
STARTCHAR nine
ENCODING 57
SWIDTH 475 0
DWIDTH 8 0
BBX 7 11 0 0
BITMAP
1C
24
4E
4A
92
E2
02
02
02
02
02
ENDCHAR
STARTCHAR colon
ENCODING 58
SWIDTH 120 0
DWIDTH 2 0
BBX 1 5 0 2
BITMAP
80
00
00
00
80
ENDCHAR
STARTCHAR semicolon
ENCODING 59
SWIDTH 121 0
DWIDTH 2 0
BBX 2 7 0 -2
BITMAP
80
00
00
C0
40
40
80
ENDCHAR
STARTCHAR less
ENCODING 60
SWIDTH 409 0
DWIDTH 7 0
BBX 5 8 1 2
BITMAP
08
18
20
40
80
40
30
08
ENDCHAR
STARTCHAR equal
ENCODING 61
SWIDTH 433 0
DWIDTH 7 0
BBX 7 5 0 1
BITMAP
0C
70
06
38
C0
ENDCHAR
STARTCHAR greater
ENCODING 62
SWIDTH 450 0
DWIDTH 7 0
BBX 5 9 1 2
BITMAP
80
C0
30
08
08
10
20
40
80
ENDCHAR
STARTCHAR question
ENCODING 63
SWIDTH 445 0
DWIDTH 7 0
BBX 7 15 0 0
BITMAP
1C
62
82
04
04
18
10
20
38
00
00
00
00
00
10
ENDCHAR
STARTCHAR at
ENCODING 64
SWIDTH 945 0
DWIDTH 15 0
BBX 15 14 0 0
BITMAP
03F0
0408
0808
1188
2684
4588
4A88
5288
9C70
8000
4006
400C
2030
1FC0
ENDCHAR
STARTCHAR A
ENCODING 65
SWIDTH 390 0
DWIDTH 6 0
BBX 8 12 0 0
BITMAP
20
60
60
50
50
48
4F
58
68
44
84
84
ENDCHAR
STARTCHAR B
ENCODING 66
SWIDTH 537 0
DWIDTH 9 0
BBX 8 12 0 0
BITMAP
0C
B4
44
48
5F
71
61
42
44
28
30
20
ENDCHAR
STARTCHAR C
ENCODING 67
SWIDTH 487 0
DWIDTH 8 0
BBX 7 12 0 0
BITMAP
08
34
20
40
40
40
40
82
82
84
4C
70
ENDCHAR
STARTCHAR D
ENCODING 68
SWIDTH 554 0
DWIDTH 9 0
BBX 9 12 0 0
BITMAP
2000
7E00
A100
2080
2080
2100
2100
2200
2400
2800
3000
2000
ENDCHAR
STARTCHAR E
ENCODING 69
SWIDTH 474 0
DWIDTH 8 0
BBX 6 12 1 0
BITMAP
08
B0
C0
80
88
90
E0
80
84
98
A0
C0
ENDCHAR
STARTCHAR F
ENCODING 70
SWIDTH 428 0
DWIDTH 7 0
BBX 7 11 0 0
BITMAP
8E
B0
C0
80
40
4C
50
60
40
40
40
ENDCHAR
STARTCHAR G
ENCODING 71
SWIDTH 591 0
DWIDTH 9 0
BBX 9 12 0 -2
BITMAP
0E00
1000
2000
2000
4780
4100
8300
8700
CD00
7100
0100
0100
ENDCHAR
STARTCHAR H
ENCODING 72
SWIDTH 424 0
DWIDTH 7 0
BBX 6 11 0 0
BITMAP
88
84
84
84
84
4C
74
44
44
44
44
ENDCHAR
STARTCHAR I
ENCODING 73
SWIDTH 153 0
DWIDTH 2 0
BBX 1 12 1 0
BITMAP
80
80
80
80
80
80
80
80
80
80
80
80
ENDCHAR
STARTCHAR J
ENCODING 74
SWIDTH 371 0
DWIDTH 6 0
BBX 5 12 0 -1
BITMAP
08
08
08
08
08
08
08
08
08
88
48
38
ENDCHAR
STARTCHAR K
ENCODING 75
SWIDTH 524 0
DWIDTH 8 0
BBX 8 11 0 0
BITMAP
80
44
48
48
50
60
60
40
7F
40
20
ENDCHAR
STARTCHAR L
ENCODING 76
SWIDTH 537 0
DWIDTH 9 0
BBX 8 10 0 0
BITMAP
C0
40
40
40
40
40
41
46
58
60
ENDCHAR
STARTCHAR M
ENCODING 77
SWIDTH 682 0
DWIDTH 11 0
BBX 10 12 0 0
BITMAP
C080
6080
6180
5180
5140
4A40
4A40
4640
4440
4040
4040
4040
ENDCHAR
STARTCHAR N
ENCODING 78
SWIDTH 541 0
DWIDTH 9 0
BBX 8 12 0 0
BITMAP
02
02
C1
61
61
51
49
45
45
43
41
40
ENDCHAR
STARTCHAR O
ENCODING 79
SWIDTH 382 0
DWIDTH 6 0
BBX 6 11 0 0
BITMAP
18
28
44
44
44
84
84
88
88
58
70
ENDCHAR
STARTCHAR P
ENCODING 80
SWIDTH 508 0
DWIDTH 8 0
BBX 8 13 0 0
BITMAP
5E
63
C1
42
46
48
70
40
40
40
40
40
40
ENDCHAR
STARTCHAR Q
ENCODING 81
SWIDTH 512 0
DWIDTH 8 0
BBX 8 12 0 0
BITMAP
3C
62
42
42
41
81
8A
86
86
42
46
39
ENDCHAR
STARTCHAR R
ENCODING 82
SWIDTH 503 0
DWIDTH 8 0
BBX 7 13 1 0
BITMAP
80
FC
82
84
98
E0
80
C0
B0
8C
82
80
80
ENDCHAR
STARTCHAR S
ENCODING 83
SWIDTH 541 0
DWIDTH 9 0
BBX 8 12 0 0
BITMAP
0E
14
20
40
80
80
40
3E
01
03
0C
30
ENDCHAR
STARTCHAR T
ENCODING 84
SWIDTH 595 0
DWIDTH 10 0
BBX 11 11 0 0
BITMAP
1FE0
E400
0400
0400
0400
0400
0200
0200
0200
0200
0200
ENDCHAR
STARTCHAR U
ENCODING 85
SWIDTH 450 0
DWIDTH 7 0
BBX 7 12 0 -2
BITMAP
02
82
86
46
46
44
46
4A
4A
72
02
02
ENDCHAR
STARTCHAR V
ENCODING 86
SWIDTH 524 0
DWIDTH 8 0
BBX 8 12 0 0
BITMAP
01
01
01
82
42
42
22
22
14
14
0C
0C
ENDCHAR
STARTCHAR W
ENCODING 87
SWIDTH 878 0
DWIDTH 14 0
BBX 13 12 0 0
BITMAP
0008
0008
8108
4108
4288
4290
2290
2450
2450
3420
1820
1800
ENDCHAR
STARTCHAR X
ENCODING 88
SWIDTH 461 0
DWIDTH 7 0
BBX 7 11 0 0
BITMAP
02
44
44
28
28
10
10
28
44
C4
04
ENDCHAR
STARTCHAR Y
ENCODING 89
SWIDTH 483 0
DWIDTH 8 0
BBX 7 12 0 0
BITMAP
02
02
82
42
24
34
18
08
08
10
10
10
ENDCHAR
STARTCHAR Z
ENCODING 90
SWIDTH 670 0
DWIDTH 11 0
BBX 10 11 0 0
BITMAP
7F80
0100
0300
0200
0400
0800
1000
3000
2000
4000
FFC0
ENDCHAR
STARTCHAR bracketleft
ENCODING 91
SWIDTH 470 0
DWIDTH 8 0
BBX 7 20 0 -2
BITMAP
FC
80
80
80
40
40
40
40
40
40
40
40
40
40
40
40
40
40
3E
20
ENDCHAR
STARTCHAR backslash
ENCODING 92
SWIDTH 554 0
DWIDTH 9 0
BBX 9 16 0 0
BITMAP
8000
4000
4000
2000
2000
1000
1000
0800
0800
0400
0400
0200
0200
0100
0100
0180
ENDCHAR
STARTCHAR bracketright
ENCODING 93
SWIDTH 512 0
DWIDTH 8 0
BBX 8 21 0 -2
BITMAP
7E
82
02
02
02
02
02
02
02
02
02
02
02
02
02
01
01
01
01
07
18
ENDCHAR
STARTCHAR asciicircum
ENCODING 94
SWIDTH 390 0
DWIDTH 6 0
BBX 6 4 0 11
BITMAP
20
30
48
C4
ENDCHAR
STARTCHAR underscore
ENCODING 95
SWIDTH 612 0
DWIDTH 10 0
BBX 9 3 0 0
BITMAP
0180
1F00
E000
ENDCHAR
STARTCHAR grave
ENCODING 96
SWIDTH 155 0
DWIDTH 2 0
BBX 2 3 0 9
BITMAP
80
40
40
ENDCHAR
STARTCHAR a
ENCODING 97
SWIDTH 366 0
DWIDTH 6 0
BBX 5 9 0 0
BITMAP
18
38
28
48
58
98
A8
C8
C8
ENDCHAR
STARTCHAR b
ENCODING 98
SWIDTH 442 0
DWIDTH 7 0
BBX 6 13 1 0
BITMAP
80
80
80
80
80
B8
C4
84
88
88
90
E0
80
ENDCHAR
STARTCHAR c
ENCODING 99
SWIDTH 390 0
DWIDTH 6 0
BBX 6 9 0 0
BITMAP
70
50
40
80
80
84
84
48
70
ENDCHAR
STARTCHAR d
ENCODING 100
SWIDTH 316 0
DWIDTH 5 0
BBX 4 15 0 -1
BITMAP
10
10
10
10
10
10
70
50
90
90
90
90
B0
D0
10
ENDCHAR
STARTCHAR e
ENCODING 101
SWIDTH 461 0
DWIDTH 7 0
BBX 7 8 0 0
BITMAP
3C
4C
50
60
C2
44
48
70
ENDCHAR
STARTCHAR f
ENCODING 102
SWIDTH 345 0
DWIDTH 6 0
BBX 5 14 0 0
BITMAP
30
28
20
20
40
40
58
60
A0
20
20
20
20
20
ENDCHAR
STARTCHAR g
ENCODING 103
SWIDTH 437 0
DWIDTH 7 0
BBX 6 16 0 -7
BITMAP
0C
34
2C
4C
54
94
A4
64
04
04
04
04
04
08
08
70
ENDCHAR
STARTCHAR h
ENCODING 104
SWIDTH 466 0
DWIDTH 7 0
BBX 6 12 1 0
BITMAP
80
80
80
80
9C
B4
A4
C4
C4
84
84
84
ENDCHAR
STARTCHAR i
ENCODING 105
SWIDTH 132 0
DWIDTH 2 0
BBX 1 12 0 0
BITMAP
80
00
00
80
80
80
80
80
80
80
80
80
ENDCHAR
STARTCHAR j
ENCODING 106
SWIDTH 112 0
DWIDTH 2 0
BBX 5 18 -3 -5
BITMAP
10
00
00
00
00
10
10
10
10
10
08
08
08
08
08
08
90
70
ENDCHAR
STARTCHAR k
ENCODING 107
SWIDTH 428 0
DWIDTH 7 0
BBX 6 13 0 -1
BITMAP
40
40
40
44
4C
48
50
70
60
40
B8
84
80
ENDCHAR
STARTCHAR l
ENCODING 108
SWIDTH 137 0
DWIDTH 2 0
BBX 2 14 0 0
BITMAP
80
80
80
40
40
40
40
40
40
40
40
40
40
40
ENDCHAR
STARTCHAR m
ENCODING 109
SWIDTH 579 0
DWIDTH 9 0
BBX 9 10 0 0
BITMAP
8000
8000
5300
7300
6D00
6D00
4D00
4900
4080
4000
ENDCHAR
STARTCHAR n
ENCODING 110
SWIDTH 483 0
DWIDTH 8 0
BBX 7 9 0 0
BITMAP
8C
92
52
62
62
62
62
42
42
ENDCHAR
STARTCHAR o
ENCODING 111
SWIDTH 266 0
DWIDTH 4 0
BBX 4 9 0 0
BITMAP
60
50
90
90
90
90
90
A0
40
ENDCHAR
STARTCHAR p
ENCODING 112
SWIDTH 482 0
DWIDTH 8 0
BBX 7 12 0 -4
BITMAP
9E
A2
C2
84
88
70
60
40
40
80
80
80
ENDCHAR
STARTCHAR q
ENCODING 113
SWIDTH 408 0
DWIDTH 7 0
BBX 7 11 0 -4
BITMAP
38
28
4C
8C
94
B4
44
04
04
02
02
ENDCHAR
STARTCHAR r
ENCODING 114
SWIDTH 396 0
DWIDTH 6 0
BBX 6 8 0 0
BITMAP
9C
A0
60
60
60
60
60
60
ENDCHAR
STARTCHAR s
ENCODING 115
SWIDTH 366 0
DWIDTH 6 0
BBX 6 8 0 0
BITMAP
38
40
40
80
7C
04
18
30
ENDCHAR
STARTCHAR t
ENCODING 116
SWIDTH 268 0
DWIDTH 4 0
BBX 5 12 -1 0
BITMAP
20
20
20
38
70
E0
20
20
20
20
20
20
ENDCHAR
STARTCHAR u
ENCODING 117
SWIDTH 387 0
DWIDTH 6 0
BBX 5 8 1 0
BITMAP
90
90
90
90
90
90
B0
C8
ENDCHAR
STARTCHAR v
ENCODING 118
SWIDTH 354 0
DWIDTH 6 0
BBX 5 9 0 0
BITMAP
08
08
88
48
48
28
28
18
08
ENDCHAR
STARTCHAR w
ENCODING 119
SWIDTH 566 0
DWIDTH 9 0
BBX 9 8 0 0
BITMAP
8900
5900
5500
5300
3300
3100
1180
1000
ENDCHAR
STARTCHAR x
ENCODING 120
SWIDTH 454 0
DWIDTH 7 0
BBX 7 11 0 -1
BITMAP
08
08
08
D0
70
30
18
24
22
20
20
ENDCHAR
STARTCHAR y
ENCODING 121
SWIDTH 363 0
DWIDTH 6 0
BBX 5 14 0 -6
BITMAP
08
C8
48
28
28
18
08
08
08
08
08
08
08
08
ENDCHAR
STARTCHAR z
ENCODING 122
SWIDTH 618 0
DWIDTH 10 0
BBX 10 8 0 0
BITMAP
0C00
F400
0400
0800
0800
1000
13C0
1C00
ENDCHAR
STARTCHAR braceleft
ENCODING 123
SWIDTH 348 0
DWIDTH 6 0
BBX 6 15 0 -1
BITMAP
18
24
40
40
20
20
C0
40
20
C0
80
80
80
40
70
ENDCHAR
STARTCHAR bar
ENCODING 124
SWIDTH 137 0
DWIDTH 2 0
BBX 2 14 0 0
BITMAP
80
80
80
40
40
40
40
40
40
40
40
40
40
40
ENDCHAR
STARTCHAR braceright
ENCODING 125
SWIDTH 348 0
DWIDTH 6 0
BBX 5 15 0 -2
BITMAP
E0
10
10
10
20
38
10
30
18
08
08
08
08
30
60
ENDCHAR
STARTCHAR asciitilde
ENCODING 126
SWIDTH 458 0
DWIDTH 7 0
BBX 6 2 1 9
BITMAP
EC
B8
ENDCHAR
STARTCHAR nonbreakingspace
ENCODING 160
SWIDTH 450 0
DWIDTH 7 0
BBX 1 1 0 0
BITMAP
00
ENDCHAR
STARTCHAR exclamdown
ENCODING 161
SWIDTH 137 0
DWIDTH 2 0
BBX 2 10 0 -2
BITMAP
40
00
00
00
80
80
80
80
80
80
ENDCHAR
STARTCHAR cent
ENCODING 162
SWIDTH 394 0
DWIDTH 6 0
BBX 6 12 0 -1
BITMAP
20
20
70
58
50
90
90
94
94
58
70
10
ENDCHAR
STARTCHAR sterling
ENCODING 163
SWIDTH 539 0
DWIDTH 9 0
BBX 8 11 0 0
BITMAP
06
09
10
20
3C
E0
20
20
20
2E
31
ENDCHAR
STARTCHAR currency
ENCODING 164
SWIDTH 500 0
DWIDTH 8 0
BBX 6 9 1 1
BITMAP
4C
78
48
48
48
48
70
A8
80
ENDCHAR
STARTCHAR yen
ENCODING 165
SWIDTH 478 0
DWIDTH 8 0
BBX 6 13 1 0
BITMAP
84
48
48
70
30
20
20
FC
20
F8
20
20
20
ENDCHAR
STARTCHAR brokenbar
ENCODING 166
SWIDTH 137 0
DWIDTH 2 0
BBX 2 14 0 0
BITMAP
80
80
80
40
40
40
00
40
40
40
40
40
40
40
ENDCHAR
STARTCHAR section
ENCODING 167
SWIDTH 366 0
DWIDTH 6 0
BBX 6 12 0 0
BITMAP
38
40
80
80
F8
4C
48
90
7C
04
18
30
ENDCHAR
STARTCHAR dieresis
ENCODING 168
SWIDTH 306 0
DWIDTH 5 0
BBX 3 1 1 11
BITMAP
A0
ENDCHAR
STARTCHAR copyright
ENCODING 169
SWIDTH 485 0
DWIDTH 8 0
BBX 8 11 0 0
BITMAP
1C
32
22
5A
61
A2
A6
AE
94
48
70
ENDCHAR
STARTCHAR ordfeminine
ENCODING 170
SWIDTH 227 0
DWIDTH 4 0
BBX 3 4 0 2
BITMAP
60
A0
E0
A0
ENDCHAR
STARTCHAR guillemotleft
ENCODING 171
SWIDTH 652 0
DWIDTH 10 0
BBX 8 8 1 2
BITMAP
09
1A
24
58
90
48
36
09
ENDCHAR
STARTCHAR logicalnot
ENCODING 172
SWIDTH 539 0
DWIDTH 9 0
BBX 7 4 1 2
BITMAP
FE
02
02
02
ENDCHAR
STARTCHAR uni00AD
ENCODING 173
SWIDTH 399 0
DWIDTH 6 0
BBX 6 2 0 3
BITMAP
1C
E0
ENDCHAR
STARTCHAR registered
ENCODING 174
SWIDTH 382 0
DWIDTH 6 0
BBX 8 11 0 0
BITMAP
08
3C
42
7E
65
B9
BA
A6
A2
44
78
ENDCHAR
STARTCHAR macron
ENCODING 175
SWIDTH 399 0
DWIDTH 6 0
BBX 6 1 0 11
BITMAP
FC
ENDCHAR
STARTCHAR degree
ENCODING 176
SWIDTH 201 0
DWIDTH 3 0
BBX 3 3 0 6
BITMAP
40
A0
60
ENDCHAR
STARTCHAR plusminus
ENCODING 177
SWIDTH 466 0
DWIDTH 7 0
BBX 6 8 0 1
BITMAP
10
10
10
1C
F0
10
10
7C
ENDCHAR
STARTCHAR twosuperior
ENCODING 178
SWIDTH 318 0
DWIDTH 5 0
BBX 5 5 0 2
BITMAP
60
A0
20
28
70
ENDCHAR
STARTCHAR threesuperior
ENCODING 179
SWIDTH 280 0
DWIDTH 4 0
BBX 4 6 0 3
BITMAP
E0
20
50
10
10
20
ENDCHAR
STARTCHAR acute
ENCODING 180
SWIDTH 155 0
DWIDTH 2 0
BBX 2 3 0 9
BITMAP
40
40
80
ENDCHAR
STARTCHAR mu
ENCODING 181
SWIDTH 387 0
DWIDTH 6 0
BBX 5 11 0 -2
BITMAP
80
88
88
88
C8
C8
D8
F8
80
80
80
ENDCHAR
STARTCHAR paragraph
ENCODING 182
SWIDTH 447 0
DWIDTH 7 0
BBX 6 10 0 0
BITMAP
7C
7C
FC
6C
0C
0C
0C
0C
0C
0C
ENDCHAR
STARTCHAR periodcentered
ENCODING 183
SWIDTH 128 0
DWIDTH 2 0
BBX 2 2 0 3
BITMAP
40
80
ENDCHAR
STARTCHAR cedilla
ENCODING 184
SWIDTH 322 0
DWIDTH 5 0
BBX 4 6 1 -5
BITMAP
80
80
C0
20
30
E0
ENDCHAR
STARTCHAR onesuperior
ENCODING 185
SWIDTH 112 0
DWIDTH 2 0
BBX 1 6 0 2
BITMAP
80
80
80
80
80
80
ENDCHAR
STARTCHAR ordmasculine
ENCODING 186
SWIDTH 212 0
DWIDTH 3 0
BBX 3 4 0 2
BITMAP
E0
A0
A0
C0
ENDCHAR
STARTCHAR guillemotright
ENCODING 187
SWIDTH 625 0
DWIDTH 10 0
BBX 8 9 1 2
BITMAP
90
D8
36
09
09
12
24
58
90
ENDCHAR
STARTCHAR onequarter
ENCODING 188
SWIDTH 678 0
DWIDTH 11 0
BBX 10 12 0 -1
BITMAP
0800
0800
1000
9100
9300
A500
A540
BF80
C100
4100
4100
8000
ENDCHAR
STARTCHAR onehalf
ENCODING 189
SWIDTH 693 0
DWIDTH 11 0
BBX 9 12 1 -1
BITMAP
0800
9000
9000
9000
AC00
B200
A400
C400
4400
4B80
4C00
8000
ENDCHAR
STARTCHAR threequarters
ENCODING 190
SWIDTH 868 0
DWIDTH 14 0
BBX 10 12 1 -1
BITMAP
0100
E180
A280
2380
DA80
0A80
0DC0
1680
6480
0880
0880
0800
ENDCHAR
STARTCHAR questiondown
ENCODING 191
SWIDTH 541 0
DWIDTH 9 0
BBX 7 13 1 0
BITMAP
18
00
00
00
00
38
08
08
10
20
40
82
FC
ENDCHAR
STARTCHAR Agrave
ENCODING 192
SWIDTH 390 0
DWIDTH 6 0
BBX 7 14 1 0
BITMAP
40
40
60
40
A0
A0
A0
90
9E
90
E8
88
88
88
ENDCHAR
STARTCHAR Aacute
ENCODING 193
SWIDTH 390 0
DWIDTH 6 0
BBX 8 15 0 0
BITMAP
20
60
40
20
60
60
50
50
48
4F
58
68
44
84
84
ENDCHAR
STARTCHAR Acircumflex
ENCODING 194
SWIDTH 390 0
DWIDTH 6 0
BBX 8 16 0 0
BITMAP
40
60
90
88
20
60
60
50
50
48
4F
58
68
44
84
84
ENDCHAR
STARTCHAR Atilde
ENCODING 195
SWIDTH 390 0
DWIDTH 6 0
BBX 8 16 0 0
BITMAP
E4
98
00
00
20
60
60
50
50
48
4F
58
68
44
84
84
ENDCHAR
STARTCHAR Adieresis
ENCODING 196
SWIDTH 390 0
DWIDTH 6 0
BBX 8 14 0 0
BITMAP
50
00
20
60
60
50
50
48
4F
58
68
44
84
84
ENDCHAR
STARTCHAR Aring
ENCODING 197
SWIDTH 390 0
DWIDTH 6 0
BBX 8 14 0 0
BITMAP
F0
90
60
60
60
50
50
48
4F
58
68
44
84
84
ENDCHAR
STARTCHAR AE
ENCODING 198
SWIDTH 708 0
DWIDTH 11 0
BBX 11 12 0 0
BITMAP
2040
6B80
6400
5400
5440
4D80
4E00
5C00
6C20
44C0
8700
8400
ENDCHAR
STARTCHAR Ccedilla
ENCODING 199
SWIDTH 487 0
DWIDTH 8 0
BBX 7 17 0 -5
BITMAP
08
34
20
40
40
40
40
82
82
84
4C
70
20
30
18
04
3C
ENDCHAR
STARTCHAR Egrave
ENCODING 200
SWIDTH 474 0
DWIDTH 8 0
BBX 6 15 1 0
BITMAP
40
60
20
08
B0
C0
80
88
90
E0
80
84
98
A0
C0
ENDCHAR
STARTCHAR Eacute
ENCODING 201
SWIDTH 474 0
DWIDTH 8 0
BBX 6 14 1 0
BITMAP
10
20
28
B0
C0
80
88
90
E0
80
84
98
A0
C0
ENDCHAR
STARTCHAR Ecircumflex
ENCODING 202
SWIDTH 474 0
DWIDTH 8 0
BBX 6 17 1 0
BITMAP
20
50
48
84
00
08
B0
C0
80
88
90
E0
80
84
98
A0
C0
ENDCHAR
STARTCHAR Edieresis
ENCODING 203
SWIDTH 474 0
DWIDTH 8 0
BBX 6 14 1 0
BITMAP
50
00
08
B0
C0
80
88
90
E0
80
84
98
A0
C0
ENDCHAR
STARTCHAR Igrave
ENCODING 204
SWIDTH 153 0
DWIDTH 2 0
BBX 2 15 0 0
BITMAP
80
40
40
40
40
40
40
40
40
40
40
40
40
40
40
ENDCHAR
STARTCHAR Iacute
ENCODING 205
SWIDTH 153 0
DWIDTH 2 0
BBX 2 15 0 0
BITMAP
40
40
80
40
40
40
40
40
40
40
40
40
40
40
40
ENDCHAR
STARTCHAR Icircumflex
ENCODING 206
SWIDTH 153 0
DWIDTH 2 0
BBX 5 16 -1 0
BITMAP
20
50
50
88
20
20
20
20
20
20
20
20
20
20
20
20
ENDCHAR
STARTCHAR Idieresis
ENCODING 207
SWIDTH 153 0
DWIDTH 2 0
BBX 3 14 0 0
BITMAP
A0
00
40
40
40
40
40
40
40
40
40
40
40
40
ENDCHAR
STARTCHAR Eth
ENCODING 208
SWIDTH 554 0
DWIDTH 9 0
BBX 9 12 0 0
BITMAP
2000
7E00
A100
2080
2080
2100
2100
2200
F400
2800
3000
2000
ENDCHAR
STARTCHAR Ntilde
ENCODING 209
SWIDTH 541 0
DWIDTH 9 0
BBX 8 15 0 0
BITMAP
76
4C
00
02
02
C1
61
61
51
49
45
45
43
41
40
ENDCHAR
STARTCHAR Ograve
ENCODING 210
SWIDTH 382 0
DWIDTH 6 0
BBX 6 14 0 0
BITMAP
10
08
08
18
28
44
44
44
84
84
88
88
58
70
ENDCHAR
STARTCHAR Oacute
ENCODING 211
SWIDTH 382 0
DWIDTH 6 0
BBX 6 14 0 0
BITMAP
10
30
20
18
28
44
44
44
84
84
88
88
58
70
ENDCHAR
STARTCHAR Ocircumflex
ENCODING 212
SWIDTH 382 0
DWIDTH 6 0
BBX 6 15 0 0
BITMAP
20
30
48
84
18
28
44
44
44
84
84
88
88
58
70
ENDCHAR
STARTCHAR Otilde
ENCODING 213
SWIDTH 382 0
DWIDTH 6 0
BBX 7 14 0 0
BITMAP
76
4C
00
18
28
44
44
44
84
84
88
88
58
70
ENDCHAR
STARTCHAR Odieresis
ENCODING 214
SWIDTH 382 0
DWIDTH 6 0
BBX 6 13 0 0
BITMAP
3C
00
18
28
44
44
44
84
84
88
88
58
70
ENDCHAR
STARTCHAR multiply
ENCODING 215
SWIDTH 454 0
DWIDTH 7 0
BBX 5 6 1 2
BITMAP
80
58
50
20
50
90
ENDCHAR
STARTCHAR Oslash
ENCODING 216
SWIDTH 382 0
DWIDTH 6 0
BBX 6 12 0 -1
BITMAP
18
28
4C
54
54
94
A4
A8
A8
58
70
40
ENDCHAR
STARTCHAR Ugrave
ENCODING 217
SWIDTH 450 0
DWIDTH 7 0
BBX 7 15 0 -2
BITMAP
20
10
10
02
82
86
46
46
44
46
4A
4A
72
02
02
ENDCHAR
STARTCHAR Uacute
ENCODING 218
SWIDTH 450 0
DWIDTH 7 0
BBX 7 14 0 -2
BITMAP
08
18
12
82
86
46
46
44
46
4A
4A
72
02
02
ENDCHAR
STARTCHAR Ucircumflex
ENCODING 219
SWIDTH 450 0
DWIDTH 7 0
BBX 7 17 0 -2
BITMAP
10
28
28
44
00
02
82
86
46
46
44
46
4A
4A
72
02
02
ENDCHAR
STARTCHAR Udieresis
ENCODING 220
SWIDTH 450 0
DWIDTH 7 0
BBX 7 14 0 -2
BITMAP
28
00
02
82
86
46
46
44
46
4A
4A
72
02
02
ENDCHAR
STARTCHAR Yacute
ENCODING 221
SWIDTH 483 0
DWIDTH 8 0
BBX 7 16 0 0
BITMAP
04
08
10
00
02
02
82
42
24
34
18
08
08
10
10
10
ENDCHAR
STARTCHAR Thorn
ENCODING 222
SWIDTH 398 0
DWIDTH 6 0
BBX 6 13 0 0
BITMAP
40
40
40
7C
44
44
84
88
90
E0
80
80
40
ENDCHAR
STARTCHAR germandbls
ENCODING 223
SWIDTH 537 0
DWIDTH 9 0
BBX 8 12 0 0
BITMAP
0C
B4
44
48
5F
71
61
42
44
28
30
20
ENDCHAR
STARTCHAR agrave
ENCODING 224
SWIDTH 366 0
DWIDTH 6 0
BBX 5 12 0 0
BITMAP
20
20
10
18
38
28
48
58
98
A8
C8
C8
ENDCHAR
STARTCHAR aacute
ENCODING 225
SWIDTH 366 0
DWIDTH 6 0
BBX 5 12 0 0
BITMAP
10
10
20
18
38
28
48
58
98
A8
C8
C8
ENDCHAR
STARTCHAR acircumflex
ENCODING 226
SWIDTH 366 0
DWIDTH 6 0
BBX 6 15 0 0
BITMAP
20
50
48
84
00
00
18
38
28
48
58
98
A8
C4
C4
ENDCHAR
STARTCHAR atilde
ENCODING 227
SWIDTH 366 0
DWIDTH 6 0
BBX 6 12 0 0
BITMAP
74
9C
00
18
38
28
48
58
98
A8
C4
C4
ENDCHAR
STARTCHAR adieresis
ENCODING 228
SWIDTH 366 0
DWIDTH 6 0
BBX 5 12 0 0
BITMAP
78
00
00
18
38
28
48
58
98
A8
C8
C8
ENDCHAR
STARTCHAR aring
ENCODING 229
SWIDTH 366 0
DWIDTH 6 0
BBX 5 11 0 0
BITMAP
38
48
38
38
28
48
58
98
A8
C8
C8
ENDCHAR
STARTCHAR ae
ENCODING 230
SWIDTH 705 0
DWIDTH 11 0
BBX 11 9 0 0
BITMAP
1B80
3A40
2C80
4F00
5C20
9C60
A440
C580
C600
ENDCHAR
STARTCHAR ccedilla
ENCODING 231
SWIDTH 390 0
DWIDTH 6 0
BBX 6 14 0 -5
BITMAP
70
50
40
80
80
84
84
48
70
20
20
18
08
38
ENDCHAR
STARTCHAR egrave
ENCODING 232
SWIDTH 461 0
DWIDTH 7 0
BBX 7 12 0 0
BITMAP
20
10
10
00
3C
4C
50
60
C2
44
48
70
ENDCHAR
STARTCHAR eacute
ENCODING 233
SWIDTH 461 0
DWIDTH 7 0
BBX 7 12 0 0
BITMAP
08
18
10
00
3C
4C
50
60
C2
44
48
70
ENDCHAR
STARTCHAR ecircumflex
ENCODING 234
SWIDTH 461 0
DWIDTH 7 0
BBX 7 15 0 0
BITMAP
10
28
24
44
00
00
00
3C
4C
50
60
C2
44
48
70
ENDCHAR
STARTCHAR edieresis
ENCODING 235
SWIDTH 461 0
DWIDTH 7 0
BBX 7 12 0 0
BITMAP
28
00
00
00
3C
4C
50
60
C2
44
48
70
ENDCHAR
STARTCHAR igrave
ENCODING 236
SWIDTH 132 0
DWIDTH 2 0
BBX 2 13 0 0
BITMAP
80
C0
00
00
40
80
80
80
80
80
40
40
40
ENDCHAR
STARTCHAR iacute
ENCODING 237
SWIDTH 132 0
DWIDTH 2 0
BBX 2 13 0 0
BITMAP
40
80
00
00
40
80
80
80
80
80
40
40
40
ENDCHAR
STARTCHAR icircumflex
ENCODING 238
SWIDTH 132 0
DWIDTH 2 0
BBX 6 15 -2 0
BITMAP
20
30
48
84
00
00
10
20
20
20
20
20
10
10
10
ENDCHAR
STARTCHAR idieresis
ENCODING 239
SWIDTH 132 0
DWIDTH 2 0
BBX 4 12 -1 0
BITMAP
D0
00
00
20
40
40
40
40
40
20
20
20
ENDCHAR
STARTCHAR eth
ENCODING 240
SWIDTH 481 0
DWIDTH 8 0
BBX 7 10 1 0
BITMAP
20
20
12
7C
08
68
98
88
98
70
ENDCHAR
STARTCHAR ntilde
ENCODING 241
SWIDTH 483 0
DWIDTH 8 0
BBX 7 13 0 0
BITMAP
72
4C
00
00
8C
92
52
62
62
62
62
42
42
ENDCHAR
STARTCHAR ograve
ENCODING 242
SWIDTH 266 0
DWIDTH 4 0
BBX 4 12 0 0
BITMAP
40
40
20
60
50
90
90
90
90
90
A0
40
ENDCHAR
STARTCHAR oacute
ENCODING 243
SWIDTH 266 0
DWIDTH 4 0
BBX 4 12 0 0
BITMAP
10
20
40
60
50
90
90
90
90
90
A0
40
ENDCHAR
STARTCHAR ocircumflex
ENCODING 244
SWIDTH 266 0
DWIDTH 4 0
BBX 6 15 -1 0
BITMAP
20
30
48
44
80
00
30
28
48
48
48
48
48
50
20
ENDCHAR
STARTCHAR otilde
ENCODING 245
SWIDTH 266 0
DWIDTH 4 0
BBX 6 12 0 0
BITMAP
EC
B8
00
60
50
90
90
90
90
90
A0
40
ENDCHAR
STARTCHAR odieresis
ENCODING 246
SWIDTH 266 0
DWIDTH 4 0
BBX 4 12 0 0
BITMAP
50
00
00
60
50
90
90
90
90
90
A0
40
ENDCHAR
STARTCHAR divide
ENCODING 247
SWIDTH 345 0
DWIDTH 6 0
BBX 5 5 0 2
BITMAP
20
00
F8
00
20
ENDCHAR
STARTCHAR oslash
ENCODING 248
SWIDTH 266 0
DWIDTH 4 0
BBX 4 10 0 -1
BITMAP
70
50
90
B0
B0
D0
D0
A0
C0
80
ENDCHAR
STARTCHAR ugrave
ENCODING 249
SWIDTH 387 0
DWIDTH 6 0
BBX 5 12 1 0
BITMAP
40
40
20
00
90
90
90
90
90
90
B0
C8
ENDCHAR
STARTCHAR uacute
ENCODING 250
SWIDTH 387 0
DWIDTH 6 0
BBX 5 12 1 0
BITMAP
10
20
40
00
90
90
90
90
90
90
B0
C8
ENDCHAR
STARTCHAR ucircumflex
ENCODING 251
SWIDTH 387 0
DWIDTH 6 0
BBX 6 15 0 0
BITMAP
20
30
48
44
80
00
00
88
88
88
48
48
48
58
64
ENDCHAR
STARTCHAR udieresis
ENCODING 252
SWIDTH 387 0
DWIDTH 6 0
BBX 5 12 1 0
BITMAP
D0
00
00
00
90
90
90
90
90
90
B0
C8
ENDCHAR
STARTCHAR yacute
ENCODING 253
SWIDTH 363 0
DWIDTH 6 0
BBX 5 18 0 -6
BITMAP
10
10
20
00
08
C8
48
28
28
18
08
08
08
08
08
08
08
08
ENDCHAR
STARTCHAR thorn
ENCODING 254
SWIDTH 439 0
DWIDTH 7 0
BBX 7 10 0 0
BITMAP
9C
A2
44
84
48
70
40
40
40
80
ENDCHAR
STARTCHAR ydieresis
ENCODING 255
SWIDTH 363 0
DWIDTH 6 0
BBX 5 18 0 -6
BITMAP
78
00
00
00
08
C8
48
28
28
18
08
08
08
08
08
08
08
08
ENDCHAR
STARTCHAR Amacron
ENCODING 256
SWIDTH 390 0
DWIDTH 6 0
BBX 8 14 0 0
BITMAP
FC
00
20
60
60
50
50
48
4F
58
68
44
84
84
ENDCHAR
STARTCHAR amacron
ENCODING 257
SWIDTH 366 0
DWIDTH 6 0
BBX 6 12 0 0
BITMAP
FC
00
00
18
38
28
48
58
98
A8
C4
C4
ENDCHAR
STARTCHAR Abreve
ENCODING 258
SWIDTH 390 0
DWIDTH 6 0
BBX 8 16 0 0
BITMAP
48
70
00
00
20
60
60
50
50
48
4F
58
68
44
84
84
ENDCHAR
STARTCHAR abreve
ENCODING 259
SWIDTH 366 0
DWIDTH 6 0
BBX 5 12 0 0
BITMAP
48
38
00
18
38
28
48
58
98
A8
C8
C8
ENDCHAR
STARTCHAR Aogonek
ENCODING 260
SWIDTH 390 0
DWIDTH 6 0
BBX 8 16 0 -4
BITMAP
20
60
60
50
50
48
4F
58
68
44
84
84
0C
08
09
0E
ENDCHAR
STARTCHAR aogonek
ENCODING 261
SWIDTH 366 0
DWIDTH 6 0
BBX 7 12 0 -3
BITMAP
18
38
28
48
58
98
A8
C4
C8
08
10
0E
ENDCHAR
STARTCHAR Cacute
ENCODING 262
SWIDTH 487 0
DWIDTH 8 0
BBX 7 15 0 0
BITMAP
08
18
10
08
34
20
40
40
40
40
82
82
84
4C
70
ENDCHAR
STARTCHAR cacute
ENCODING 263
SWIDTH 390 0
DWIDTH 6 0
BBX 6 13 0 0
BITMAP
10
30
20
00
70
50
40
80
80
84
84
48
70
ENDCHAR
STARTCHAR Ccircumflex
ENCODING 264
SWIDTH 487 0
DWIDTH 8 0
BBX 7 16 0 0
BITMAP
10
28
24
42
08
34
20
40
40
40
40
82
82
84
4C
70
ENDCHAR
STARTCHAR ccircumflex
ENCODING 265
SWIDTH 390 0
DWIDTH 6 0
BBX 6 15 0 0
BITMAP
20
30
48
44
80
00
70
50
40
80
80
84
84
48
70
ENDCHAR
STARTCHAR Cdotaccent
ENCODING 266
SWIDTH 487 0
DWIDTH 8 0
BBX 7 14 0 0
BITMAP
10
00
08
34
20
40
40
40
40
82
82
84
4C
70
ENDCHAR
STARTCHAR cdotaccent
ENCODING 267
SWIDTH 390 0
DWIDTH 6 0
BBX 6 11 0 0
BITMAP
20
00
70
50
40
80
80
84
84
48
70
ENDCHAR
STARTCHAR Ccaron
ENCODING 268
SWIDTH 487 0
DWIDTH 8 0
BBX 7 15 0 0
BITMAP
42
24
18
08
34
20
40
40
40
40
82
82
84
4C
70
ENDCHAR
STARTCHAR ccaron
ENCODING 269
SWIDTH 390 0
DWIDTH 6 0
BBX 6 13 0 0
BITMAP
84
48
30
00
70
50
40
80
80
84
84
48
70
ENDCHAR
STARTCHAR Dcaron
ENCODING 270
SWIDTH 554 0
DWIDTH 9 0
BBX 9 15 0 0
BITMAP
2200
1600
0800
2000
7E00
A100
2080
2080
2100
2100
2200
2400
2800
3000
2000
ENDCHAR
STARTCHAR Emacron
ENCODING 274
SWIDTH 474 0
DWIDTH 8 0
BBX 7 14 0 0
BITMAP
7C
80
04
58
60
40
44
48
70
40
42
4C
50
60
ENDCHAR
STARTCHAR emacron
ENCODING 275
SWIDTH 461 0
DWIDTH 7 0
BBX 7 12 0 0
BITMAP
7E
00
00
00
3C
4C
50
60
C2
44
48
70
ENDCHAR
STARTCHAR Ebreve
ENCODING 276
SWIDTH 474 0
DWIDTH 8 0
BBX 6 15 1 0
BITMAP
48
70
00
08
B0
C0
80
88
90
E0
80
84
98
A0
C0
ENDCHAR
STARTCHAR ebreve
ENCODING 277
SWIDTH 461 0
DWIDTH 7 0
BBX 7 12 0 0
BITMAP
24
38
00
00
3C
4C
50
60
C2
44
48
70
ENDCHAR
STARTCHAR Edotaccent
ENCODING 278
SWIDTH 474 0
DWIDTH 8 0
BBX 6 13 1 0
BITMAP
20
08
B0
C0
80
88
90
E0
80
84
98
A0
C0
ENDCHAR
STARTCHAR edotaccent
ENCODING 279
SWIDTH 461 0
DWIDTH 7 0
BBX 7 10 0 0
BITMAP
10
00
3C
4C
50
60
C2
44
48
70
ENDCHAR
STARTCHAR Eogonek
ENCODING 280
SWIDTH 474 0
DWIDTH 8 0
BBX 6 14 1 -2
BITMAP
08
B0
C0
80
88
90
E0
80
84
98
B0
E0
24
18
ENDCHAR
STARTCHAR eogonek
ENCODING 281
SWIDTH 461 0
DWIDTH 7 0
BBX 7 11 0 -3
BITMAP
3C
4C
50
60
C2
44
48
70
20
20
3C
ENDCHAR
STARTCHAR Ecaron
ENCODING 282
SWIDTH 474 0
DWIDTH 8 0
BBX 6 15 1 0
BITMAP
88
50
60
08
B0
C0
80
88
90
E0
80
84
98
A0
C0
ENDCHAR
STARTCHAR ecaron
ENCODING 283
SWIDTH 461 0
DWIDTH 7 0
BBX 7 13 0 0
BITMAP
44
2C
10
00
00
3C
4C
50
60
C2
44
48
70
ENDCHAR
STARTCHAR Gcircumflex
ENCODING 284
SWIDTH 591 0
DWIDTH 9 0
BBX 9 17 0 -2
BITMAP
0800
1400
1200
2300
0200
0C00
1000
2000
2000
4780
4100
8300
8700
CD00
7100
0100
0100
ENDCHAR
STARTCHAR gcircumflex
ENCODING 285
SWIDTH 437 0
DWIDTH 7 0
BBX 6 22 0 -7
BITMAP
10
28
48
44
00
00
0C
34
2C
4C
54
94
A4
64
04
04
04
04
04
08
08
70
ENDCHAR
STARTCHAR Gbreve
ENCODING 286
SWIDTH 591 0
DWIDTH 9 0
BBX 9 15 0 -2
BITMAP
1200
0E00
0200
0C00
1000
2000
2000
4780
4100
8300
8700
CD00
7100
0100
0100
ENDCHAR
STARTCHAR gbreve
ENCODING 287
SWIDTH 437 0
DWIDTH 7 0
BBX 6 20 0 -7
BITMAP
24
38
00
00
0C
34
2C
4C
54
94
A4
64
04
04
04
04
04
08
08
70
ENDCHAR
STARTCHAR Gdotaccent
ENCODING 288
SWIDTH 591 0
DWIDTH 9 0
BBX 8 15 1 -2
BITMAP
18
00
04
18
20
20
40
8F
82
82
86
9A
62
02
02
ENDCHAR
STARTCHAR gdotaccent
ENCODING 289
SWIDTH 437 0
DWIDTH 7 0
BBX 6 18 0 -7
BITMAP
08
00
0C
34
2C
4C
54
94
A4
64
04
04
04
04
04
08
08
70
ENDCHAR
STARTCHAR Gcommaaccent
ENCODING 290
SWIDTH 591 0
DWIDTH 9 0
BBX 9 15 0 -5
BITMAP
0E00
1000
2000
2000
4780
4100
8300
8700
CD00
7100
0100
0100
0800
0800
0800
ENDCHAR
STARTCHAR Hcircumflex
ENCODING 292
SWIDTH 424 0
DWIDTH 7 0
BBX 6 16 0 0
BITMAP
20
30
48
44
80
88
84
84
84
84
4C
74
44
44
44
44
ENDCHAR
STARTCHAR hcircumflex
ENCODING 293
SWIDTH 466 0
DWIDTH 7 0
BBX 7 15 1 0
BITMAP
10
28
24
C2
80
80
80
9C
B4
A4
C4
C4
84
84
84
ENDCHAR
STARTCHAR Hbar
ENCODING 294
SWIDTH 424 0
DWIDTH 7 0
BBX 6 11 0 0
BITMAP
88
84
84
FC
84
4C
74
44
44
44
44
ENDCHAR
STARTCHAR hbar
ENCODING 295
SWIDTH 466 0
DWIDTH 7 0
BBX 8 12 -1 0
BITMAP
40
40
40
7C
C7
4D
49
31
31
21
21
41
ENDCHAR
STARTCHAR Itilde
ENCODING 296
SWIDTH 153 0
DWIDTH 2 0
BBX 6 15 -2 0
BITMAP
74
9C
00
10
10
10
10
10
10
10
10
10
10
10
10
ENDCHAR
STARTCHAR itilde
ENCODING 297
SWIDTH 132 0
DWIDTH 2 0
BBX 6 13 -2 0
BITMAP
60
A4
98
00
10
20
20
20
20
20
10
10
10
ENDCHAR
STARTCHAR imacron
ENCODING 299
SWIDTH 132 0
DWIDTH 2 0
BBX 6 12 -2 0
BITMAP
FC
00
00
10
20
20
20
20
20
10
10
10
ENDCHAR
STARTCHAR Ibreve
ENCODING 300
SWIDTH 153 0
DWIDTH 2 0
BBX 4 16 -1 0
BITMAP
90
70
00
00
20
20
20
20
20
20
20
20
20
20
20
20
ENDCHAR
STARTCHAR ibreve
ENCODING 301
SWIDTH 132 0
DWIDTH 2 0
BBX 4 13 -1 0
BITMAP
90
50
20
00
20
40
40
40
40
40
20
20
20
ENDCHAR
STARTCHAR Iogonek
ENCODING 302
SWIDTH 153 0
DWIDTH 2 0
BBX 4 15 0 -3
BITMAP
40
40
40
40
40
40
40
40
40
40
40
40
80
80
70
ENDCHAR
STARTCHAR iogonek
ENCODING 303
SWIDTH 132 0
DWIDTH 2 0
BBX 3 16 0 -4
BITMAP
80
00
00
40
80
80
80
80
80
40
40
40
80
80
A0
C0
ENDCHAR
STARTCHAR Idotaccent
ENCODING 304
SWIDTH 153 0
DWIDTH 2 0
BBX 1 14 1 0
BITMAP
80
00
80
80
80
80
80
80
80
80
80
80
80
80
ENDCHAR
STARTCHAR dotlessi
ENCODING 305
SWIDTH 132 0
DWIDTH 2 0
BBX 1 9 0 0
BITMAP
80
80
80
80
80
80
80
80
80
ENDCHAR
STARTCHAR Jcircumflex
ENCODING 308
SWIDTH 371 0
DWIDTH 6 0
BBX 7 17 0 -1
BITMAP
10
28
24
42
00
08
08
08
08
08
08
08
08
04
84
48
38
ENDCHAR
STARTCHAR jcircumflex
ENCODING 309
SWIDTH 112 0
DWIDTH 2 0
BBX 7 20 -3 -5
BITMAP
10
28
24
42
00
00
00
10
10
10
10
10
08
08
08
08
08
08
90
70
ENDCHAR
STARTCHAR Kcommaaccent
ENCODING 310
SWIDTH 524 0
DWIDTH 8 0
BBX 8 16 0 -5
BITMAP
80
44
48
48
50
60
60
40
7F
40
20
00
00
18
08
10
ENDCHAR
STARTCHAR kcommaaccent
ENCODING 311
SWIDTH 428 0
DWIDTH 7 0
BBX 6 17 0 -5
BITMAP
40
40
40
44
4C
48
50
70
60
40
B8
84
80
00
10
10
10
ENDCHAR
STARTCHAR Lacute
ENCODING 313
SWIDTH 537 0
DWIDTH 9 0
BBX 8 12 0 0
BITMAP
04
08
C8
40
40
40
40
40
41
46
58
60
ENDCHAR
STARTCHAR lacute
ENCODING 314
SWIDTH 137 0
DWIDTH 2 0
BBX 2 18 0 0
BITMAP
40
C0
80
00
80
80
80
40
40
40
40
40
40
40
40
40
40
40
ENDCHAR
STARTCHAR Lcommaaccent
ENCODING 315
SWIDTH 537 0
DWIDTH 9 0
BBX 8 15 0 -5
BITMAP
C0
40
40
40
40
40
41
46
58
60
00
00
08
08
08
ENDCHAR
STARTCHAR lcommaaccent
ENCODING 316
SWIDTH 137 0
DWIDTH 2 0
BBX 2 19 0 -5
BITMAP
80
80
80
40
40
40
40
40
40
40
40
40
40
40
00
00
C0
40
80
ENDCHAR
STARTCHAR Lcaron
ENCODING 317
SWIDTH 537 0
DWIDTH 9 0
BBX 8 15 0 0
BITMAP
44
28
30
00
00
C0
40
40
40
40
40
41
46
58
60
ENDCHAR
STARTCHAR Ldot
ENCODING 319
SWIDTH 537 0
DWIDTH 9 0
BBX 8 10 0 0
BITMAP
C0
40
40
40
40
48
49
46
58
60
ENDCHAR
STARTCHAR ldot
ENCODING 320
SWIDTH 267 0
DWIDTH 4 0
BBX 4 14 0 0
BITMAP
80
80
80
40
40
40
40
40
40
50
60
40
40
40
ENDCHAR
STARTCHAR Lslash
ENCODING 321
SWIDTH 537 0
DWIDTH 9 0
BBX 9 10 -1 0
BITMAP
6000
2000
2000
2000
2000
3C00
E080
2300
2C00
3000
ENDCHAR
STARTCHAR lslash
ENCODING 322
SWIDTH 137 0
DWIDTH 2 0
BBX 6 14 -2 0
BITMAP
20
20
20
10
10
10
10
10
10
1C
F0
10
10
10
ENDCHAR
STARTCHAR Nacute
ENCODING 323
SWIDTH 541 0
DWIDTH 9 0
BBX 8 14 0 0
BITMAP
08
10
12
02
C1
61
61
51
49
45
45
43
41
40
ENDCHAR
STARTCHAR nacute
ENCODING 324
SWIDTH 483 0
DWIDTH 8 0
BBX 7 12 0 0
BITMAP
08
18
10
8C
92
52
62
62
62
62
42
42
ENDCHAR
STARTCHAR Ncommaaccent
ENCODING 325
SWIDTH 541 0
DWIDTH 9 0
BBX 8 17 0 -5
BITMAP
02
02
C1
61
61
51
49
45
45
43
41
40
00
00
08
08
08
ENDCHAR
STARTCHAR ncommaaccent
ENCODING 326
SWIDTH 483 0
DWIDTH 8 0
BBX 7 14 0 -5
BITMAP
8C
92
52
62
62
62
62
42
42
00
00
10
10
10
ENDCHAR
STARTCHAR Ncaron
ENCODING 327
SWIDTH 541 0
DWIDTH 9 0
BBX 8 15 0 0
BITMAP
42
24
18
02
02
C1
61
61
51
49
45
45
43
41
40
ENDCHAR
STARTCHAR ncaron
ENCODING 328
SWIDTH 483 0
DWIDTH 8 0
BBX 7 13 0 0
BITMAP
42
24
18
00
8C
92
52
62
62
62
62
42
42
ENDCHAR
STARTCHAR napostrophe
ENCODING 329
SWIDTH 483 0
DWIDTH 8 0
BBX 7 13 0 0
BITMAP
20
20
20
00
8C
92
52
62
62
62
62
42
42
ENDCHAR
STARTCHAR Omacron
ENCODING 332
SWIDTH 382 0
DWIDTH 6 0
BBX 7 13 0 0
BITMAP
7E
00
18
28
44
44
44
84
84
88
88
58
70
ENDCHAR
STARTCHAR omacron
ENCODING 333
SWIDTH 266 0
DWIDTH 4 0
BBX 6 12 -1 0
BITMAP
FC
00
00
30
28
48
48
48
48
48
50
20
ENDCHAR
STARTCHAR Obreve
ENCODING 334
SWIDTH 382 0
DWIDTH 6 0
BBX 6 14 0 0
BITMAP
48
38
00
18
28
44
44
44
84
84
88
88
58
70
ENDCHAR
STARTCHAR obreve
ENCODING 335
SWIDTH 266 0
DWIDTH 4 0
BBX 4 12 0 0
BITMAP
90
70
00
60
50
90
90
90
90
90
A0
40
ENDCHAR
STARTCHAR Ohungarumlaut
ENCODING 336
SWIDTH 382 0
DWIDTH 6 0
BBX 6 14 0 0
BITMAP
0C
14
08
18
28
44
44
44
84
84
88
88
58
70
ENDCHAR
STARTCHAR ohungarumlaut
ENCODING 337
SWIDTH 266 0
DWIDTH 4 0
BBX 4 12 0 0
BITMAP
30
50
20
60
50
90
90
90
90
90
A0
40
ENDCHAR
STARTCHAR OE
ENCODING 338
SWIDTH 732 0
DWIDTH 12 0
BBX 11 11 0 0
BITMAP
15E0
2E00
4400
4400
44C0
8700
8400
8420
8C40
5D80
7600
ENDCHAR
STARTCHAR oe
ENCODING 339
SWIDTH 628 0
DWIDTH 10 0
BBX 10 9 0 0
BITMAP
6300
5480
9900
9E00
9800
9840
9880
A900
4600
ENDCHAR
STARTCHAR Racute
ENCODING 340
SWIDTH 503 0
DWIDTH 8 0
BBX 7 15 1 0
BITMAP
08
10
90
FC
82
84
98
E0
80
C0
B0
8C
82
80
80
ENDCHAR
STARTCHAR racute
ENCODING 341
SWIDTH 396 0
DWIDTH 6 0
BBX 6 12 0 0
BITMAP
08
10
20
00
9C
A0
60
60
60
60
60
60
ENDCHAR
STARTCHAR Rcommaaccent
ENCODING 342
SWIDTH 503 0
DWIDTH 8 0
BBX 7 18 1 -5
BITMAP
80
FC
82
84
98
E0
80
C0
B0
8C
82
80
80
00
00
30
20
20
ENDCHAR
STARTCHAR rcommaaccent
ENCODING 343
SWIDTH 396 0
DWIDTH 6 0
BBX 6 13 0 -5
BITMAP
9C
A0
60
60
60
60
60
60
00
00
10
10
20
ENDCHAR
STARTCHAR Rcaron
ENCODING 344
SWIDTH 503 0
DWIDTH 8 0
BBX 7 16 1 0
BITMAP
44
48
30
80
FC
82
84
98
E0
80
C0
B0
8C
82
80
80
ENDCHAR
STARTCHAR rcaron
ENCODING 345
SWIDTH 396 0
DWIDTH 6 0
BBX 6 13 0 0
BITMAP
84
48
30
00
00
9C
A0
60
60
60
60
60
60
ENDCHAR
STARTCHAR Sacute
ENCODING 346
SWIDTH 541 0
DWIDTH 9 0
BBX 8 15 0 0
BITMAP
04
08
10
0E
14
20
40
80
80
40
3E
01
03
0C
30
ENDCHAR
STARTCHAR sacute
ENCODING 347
SWIDTH 366 0
DWIDTH 6 0
BBX 6 12 0 0
BITMAP
10
10
20
00
38
40
40
80
7C
04
18
30
ENDCHAR
STARTCHAR Scircumflex
ENCODING 348
SWIDTH 541 0
DWIDTH 9 0
BBX 8 17 0 0
BITMAP
08
14
12
22
00
0E
14
20
40
80
80
40
3E
01
03
0C
30
ENDCHAR
STARTCHAR scircumflex
ENCODING 349
SWIDTH 366 0
DWIDTH 6 0
BBX 6 13 0 0
BITMAP
20
30
48
44
80
38
40
40
80
7C
04
18
30
ENDCHAR
STARTCHAR Scedilla
ENCODING 350
SWIDTH 541 0
DWIDTH 9 0
BBX 9 17 0 -5
BITMAP
0E00
1400
2000
4000
8000
8000
4000
3E00
0100
0300
0C00
3400
0400
0600
0100
0180
0700
ENDCHAR
STARTCHAR scedilla
ENCODING 351
SWIDTH 366 0
DWIDTH 6 0
BBX 6 13 0 -5
BITMAP
38
40
40
80
7C
04
18
30
20
30
08
04
38
ENDCHAR
STARTCHAR Scaron
ENCODING 352
SWIDTH 541 0
DWIDTH 9 0
BBX 8 15 0 0
BITMAP
22
24
18
0E
14
20
40
80
80
40
3E
01
03
0C
30
ENDCHAR
STARTCHAR scaron
ENCODING 353
SWIDTH 366 0
DWIDTH 6 0
BBX 6 12 0 0
BITMAP
84
48
30
00
38
40
40
80
7C
04
18
30
ENDCHAR
STARTCHAR Tcommaaccent
ENCODING 354
SWIDTH 595 0
DWIDTH 10 0
BBX 11 16 0 -5
BITMAP
1FE0
E400
0400
0400
0400
0400
0200
0200
0200
0200
0200
0000
0000
0200
0200
0200
ENDCHAR
STARTCHAR tcommaaccent
ENCODING 355
SWIDTH 268 0
DWIDTH 4 0
BBX 5 17 -1 -5
BITMAP
20
20
20
38
70
E0
20
20
20
20
20
20
00
00
30
10
20
ENDCHAR
STARTCHAR Tcaron
ENCODING 356
SWIDTH 595 0
DWIDTH 10 0
BBX 11 16 0 0
BITMAP
1080
0900
0600
0000
0000
1FE0
E400
0400
0400
0400
0400
0200
0200
0200
0200
0200
ENDCHAR
STARTCHAR Tbar
ENCODING 358
SWIDTH 595 0
DWIDTH 10 0
BBX 11 11 0 0
BITMAP
1FE0
E400
0400
1F00
0400
0400
0200
0200
0200
0200
0200
ENDCHAR
STARTCHAR Utilde
ENCODING 360
SWIDTH 450 0
DWIDTH 7 0
BBX 7 15 0 -2
BITMAP
72
4C
00
02
82
86
46
46
44
46
4A
4A
72
02
02
ENDCHAR
STARTCHAR utilde
ENCODING 361
SWIDTH 387 0
DWIDTH 6 0
BBX 6 11 0 0
BITMAP
E4
98
00
88
88
88
48
48
48
58
64
ENDCHAR
STARTCHAR Umacron
ENCODING 362
SWIDTH 450 0
DWIDTH 7 0
BBX 7 14 0 -2
BITMAP
7C
00
02
82
86
46
46
44
46
4A
4A
72
02
02
ENDCHAR
STARTCHAR umacron
ENCODING 363
SWIDTH 387 0
DWIDTH 6 0
BBX 6 12 0 0
BITMAP
FC
00
00
00
88
88
88
48
48
48
58
64
ENDCHAR
STARTCHAR Ubreve
ENCODING 364
SWIDTH 450 0
DWIDTH 7 0
BBX 7 14 0 -2
BITMAP
24
38
02
82
86
46
46
44
46
4A
4A
72
02
02
ENDCHAR
STARTCHAR ubreve
ENCODING 365
SWIDTH 387 0
DWIDTH 6 0
BBX 5 12 1 0
BITMAP
90
70
00
00
90
90
90
90
90
90
B0
C8
ENDCHAR
STARTCHAR Uring
ENCODING 366
SWIDTH 450 0
DWIDTH 7 0
BBX 7 15 0 -2
BITMAP
38
28
38
02
82
86
46
46
44
46
4A
4A
72
02
02
ENDCHAR
STARTCHAR uring
ENCODING 367
SWIDTH 387 0
DWIDTH 6 0
BBX 5 11 1 0
BITMAP
60
90
70
90
90
90
90
90
90
B0
C8
ENDCHAR
STARTCHAR Uhungarumlaut
ENCODING 368
SWIDTH 450 0
DWIDTH 7 0
BBX 7 16 0 -2
BITMAP
18
28
10
00
02
82
86
46
46
44
46
4A
4A
72
02
02
ENDCHAR
STARTCHAR uhungarumlaut
ENCODING 369
SWIDTH 387 0
DWIDTH 6 0
BBX 5 11 1 0
BITMAP
50
E0
20
90
90
90
90
90
90
B0
C8
ENDCHAR
STARTCHAR Uogonek
ENCODING 370
SWIDTH 450 0
DWIDTH 7 0
BBX 8 14 0 -4
BITMAP
02
82
86
46
46
44
46
4A
4A
72
02
06
04
07
ENDCHAR
STARTCHAR uogonek
ENCODING 371
SWIDTH 387 0
DWIDTH 6 0
BBX 6 12 1 -4
BITMAP
90
90
90
90
90
90
B0
C8
10
20
24
18
ENDCHAR
STARTCHAR Wcircumflex
ENCODING 372
SWIDTH 878 0
DWIDTH 14 0
BBX 13 17 0 0
BITMAP
0200
0300
0480
0840
0000
0008
0008
8108
4108
4288
4290
2290
2450
2450
3420
1820
1800
ENDCHAR
STARTCHAR wcircumflex
ENCODING 373
SWIDTH 566 0
DWIDTH 9 0
BBX 9 15 0 0
BITMAP
0800
1400
2400
2200
0000
0000
0000
8900
5900
5500
5300
3300
3100
1180
1000
ENDCHAR
STARTCHAR Ycircumflex
ENCODING 374
SWIDTH 483 0
DWIDTH 8 0
BBX 7 17 0 0
BITMAP
10
28
24
42
00
02
02
82
42
24
34
18
08
08
10
10
10
ENDCHAR
STARTCHAR ycircumflex
ENCODING 375
SWIDTH 363 0
DWIDTH 6 0
BBX 6 21 0 -6
BITMAP
20
50
48
84
00
00
00
04
C4
44
28
28
18
08
08
08
08
08
08
08
08
ENDCHAR
STARTCHAR Ydieresis
ENCODING 376
SWIDTH 483 0
DWIDTH 8 0
BBX 7 12 0 0
BITMAP
2E
02
82
42
24
34
18
08
08
10
10
10
ENDCHAR
STARTCHAR Zacute
ENCODING 377
SWIDTH 670 0
DWIDTH 11 0
BBX 10 15 0 0
BITMAP
0400
0C00
0800
0000
7F80
0100
0300
0200
0400
0800
1000
3000
2000
4000
FFC0
ENDCHAR
STARTCHAR zacute
ENCODING 378
SWIDTH 618 0
DWIDTH 10 0
BBX 10 12 0 0
BITMAP
0400
0400
0800
0000
0C00
F400
0400
0800
0800
1000
13C0
1C00
ENDCHAR
STARTCHAR Zdotaccent
ENCODING 379
SWIDTH 670 0
DWIDTH 11 0
BBX 10 13 0 0
BITMAP
0400
0000
7F80
0100
0300
0200
0400
0800
1000
3000
2000
4000
FFC0
ENDCHAR
STARTCHAR zdotaccent
ENCODING 380
SWIDTH 618 0
DWIDTH 10 0
BBX 10 10 0 0
BITMAP
0C00
0000
0C00
F400
0400
0800
0800
1000
13C0
1C00
ENDCHAR
STARTCHAR Zcaron
ENCODING 381
SWIDTH 670 0
DWIDTH 11 0
BBX 10 15 0 0
BITMAP
1100
0B00
0400
0000
7F80
0100
0300
0200
0400
0800
1000
3000
2000
4000
FFC0
ENDCHAR
STARTCHAR zcaron
ENCODING 382
SWIDTH 618 0
DWIDTH 10 0
BBX 10 12 0 0
BITMAP
2200
1400
1800
0000
0C00
F400
0400
0800
0800
1000
13C0
1C00
ENDCHAR
STARTCHAR florin
ENCODING 402
SWIDTH 345 0
DWIDTH 6 0
BBX 5 18 0 -4
BITMAP
30
28
20
20
40
40
58
60
A0
20
20
20
20
20
20
20
20
E0
ENDCHAR
STARTCHAR AEacute
ENCODING 508
SWIDTH 708 0
DWIDTH 11 0
BBX 11 16 0 0
BITMAP
0400
0800
0800
0000
2040
6B80
6400
5400
5440
4D80
4E00
5C00
6C20
44C0
8700
8400
ENDCHAR
STARTCHAR aeacute
ENCODING 509
SWIDTH 705 0
DWIDTH 11 0
BBX 11 12 0 0
BITMAP
0200
0600
0400
1B80
3A40
2C80
4F00
5C20
9C60
A440
C580
C600
ENDCHAR
STARTCHAR Oslashacute
ENCODING 510
SWIDTH 382 0
DWIDTH 6 0
BBX 6 16 0 -1
BITMAP
08
10
10
00
18
28
4C
54
54
94
A4
A8
A8
58
70
40
ENDCHAR
STARTCHAR oslashacute
ENCODING 511
SWIDTH 266 0
DWIDTH 4 0
BBX 4 14 0 -1
BITMAP
10
20
40
00
70
50
90
B0
B0
D0
D0
A0
C0
80
ENDCHAR
STARTCHAR Scommaaccent
ENCODING 536
SWIDTH 541 0
DWIDTH 9 0
BBX 8 17 0 -5
BITMAP
0E
14
20
40
80
80
40
3E
01
03
0C
30
00
00
08
08
08
ENDCHAR
STARTCHAR scommaaccent
ENCODING 537
SWIDTH 366 0
DWIDTH 6 0
BBX 6 13 0 -5
BITMAP
38
40
40
80
7C
04
18
30
00
00
20
20
20
ENDCHAR
STARTCHAR circumflex
ENCODING 710
SWIDTH 390 0
DWIDTH 6 0
BBX 6 4 0 11
BITMAP
20
30
48
C4
ENDCHAR
STARTCHAR caron
ENCODING 711
SWIDTH 390 0
DWIDTH 6 0
BBX 5 3 1 10
BITMAP
88
50
60
ENDCHAR
STARTCHAR breve
ENCODING 728
SWIDTH 390 0
DWIDTH 6 0
BBX 4 2 1 10
BITMAP
90
70
ENDCHAR
STARTCHAR dotaccent
ENCODING 729
SWIDTH 128 0
DWIDTH 2 0
BBX 2 1 0 9
BITMAP
C0
ENDCHAR
STARTCHAR ring
ENCODING 730
SWIDTH 266 0
DWIDTH 4 0
BBX 4 3 0 8
BITMAP
60
90
70
ENDCHAR
STARTCHAR ogonek
ENCODING 731
SWIDTH 366 0
DWIDTH 6 0
BBX 4 4 1 -4
BITMAP
60
40
90
70
ENDCHAR
STARTCHAR tilde
ENCODING 732
SWIDTH 458 0
DWIDTH 7 0
BBX 6 2 1 9
BITMAP
EC
B8
ENDCHAR
STARTCHAR hungarumlaut
ENCODING 733
SWIDTH 239 0
DWIDTH 4 0
BBX 4 3 0 7
BITMAP
50
E0
20
ENDCHAR
STARTCHAR Wgrave
ENCODING 7808
SWIDTH 878 0
DWIDTH 14 0
BBX 13 16 0 0
BITMAP
0200
0100
0100
0000
0008
0008
8108
4108
4288
4290
2290
2450
2450
3420
1820
1800
ENDCHAR
STARTCHAR wgrave
ENCODING 7809
SWIDTH 566 0
DWIDTH 9 0
BBX 9 12 0 0
BITMAP
1000
0800
0800
0000
8900
5900
5500
5300
3300
3100
1180
1000
ENDCHAR
STARTCHAR Wacute
ENCODING 7810
SWIDTH 878 0
DWIDTH 14 0
BBX 13 15 0 0
BITMAP
0100
0200
0400
0008
0008
8108
4108
4288
4290
2290
2450
2450
3420
1820
1800
ENDCHAR
STARTCHAR wacute
ENCODING 7811
SWIDTH 566 0
DWIDTH 9 0
BBX 9 12 0 0
BITMAP
0400
0C00
0800
0000
8900
5900
5500
5300
3300
3100
1180
1000
ENDCHAR
STARTCHAR Wdieresis
ENCODING 7812
SWIDTH 878 0
DWIDTH 14 0
BBX 13 13 0 0
BITMAP
0280
0008
0008
8108
4108
4288
4290
2290
2450
2450
3420
1820
1800
ENDCHAR
STARTCHAR wdieresis
ENCODING 7813
SWIDTH 566 0
DWIDTH 9 0
BBX 9 12 0 0
BITMAP
1400
0000
0000
0000
8900
5900
5500
5300
3300
3100
1180
1000
ENDCHAR
STARTCHAR Ygrave
ENCODING 7922
SWIDTH 483 0
DWIDTH 8 0
BBX 7 16 0 0
BITMAP
10
10
08
00
02
02
82
42
24
34
18
08
08
10
10
10
ENDCHAR
STARTCHAR ygrave
ENCODING 7923
SWIDTH 363 0
DWIDTH 6 0
BBX 5 18 0 -6
BITMAP
20
20
10
00
08
C8
48
28
28
18
08
08
08
08
08
08
08
08
ENDCHAR
STARTCHAR endash
ENCODING 8211
SWIDTH 399 0
DWIDTH 6 0
BBX 6 2 0 3
BITMAP
1C
E0
ENDCHAR
STARTCHAR emdash
ENCODING 8212
SWIDTH 549 0
DWIDTH 9 0
BBX 8 2 0 3
BITMAP
07
F8
ENDCHAR
STARTCHAR quoteleft
ENCODING 8216
SWIDTH 155 0
DWIDTH 2 0
BBX 1 5 1 5
BITMAP
80
80
80
80
80
ENDCHAR
STARTCHAR quoteright
ENCODING 8217
SWIDTH 155 0
DWIDTH 2 0
BBX 1 5 1 5
BITMAP
80
80
80
80
80
ENDCHAR
STARTCHAR quotesinglbase
ENCODING 8218
SWIDTH 155 0
DWIDTH 2 0
BBX 1 4 1 0
BITMAP
80
80
80
80
ENDCHAR
STARTCHAR quotedblleft
ENCODING 8220
SWIDTH 212 0
DWIDTH 3 0
BBX 3 5 0 8
BITMAP
80
A0
A0
60
60
ENDCHAR
STARTCHAR quotedblright
ENCODING 8221
SWIDTH 212 0
DWIDTH 3 0
BBX 3 5 0 8
BITMAP
80
A0
A0
60
60
ENDCHAR
STARTCHAR quotedblbase
ENCODING 8222
SWIDTH 212 0
DWIDTH 3 0
BBX 3 5 0 0
BITMAP
80
A0
60
60
60
ENDCHAR
STARTCHAR dagger
ENCODING 8224
SWIDTH 268 0
DWIDTH 4 0
BBX 5 12 -1 0
BITMAP
20
20
20
38
70
E0
20
20
20
20
20
20
ENDCHAR
STARTCHAR daggerdbl
ENCODING 8225
SWIDTH 326 0
DWIDTH 5 0
BBX 5 12 0 0
BITMAP
20
20
20
38
70
A8
70
A0
20
20
20
20
ENDCHAR
STARTCHAR bullet
ENCODING 8226
SWIDTH 189 0
DWIDTH 3 0
BBX 2 2 1 4
BITMAP
C0
C0
ENDCHAR
STARTCHAR ellipsis
ENCODING 8230
SWIDTH 387 0
DWIDTH 6 0
BBX 6 1 0 0
BITMAP
F4
ENDCHAR
STARTCHAR guilsinglleft
ENCODING 8249
SWIDTH 409 0
DWIDTH 7 0
BBX 5 8 1 2
BITMAP
08
18
20
40
80
40
30
08
ENDCHAR
STARTCHAR guilsinglright
ENCODING 8250
SWIDTH 450 0
DWIDTH 7 0
BBX 5 9 1 2
BITMAP
80
C0
30
08
08
10
20
40
80
ENDCHAR
STARTCHAR fraction
ENCODING 8260
SWIDTH 306 0
DWIDTH 5 0
BBX 4 12 0 -1
BITMAP
10
10
10
20
20
20
20
40
40
40
80
80
ENDCHAR
STARTCHAR Euro
ENCODING 8364
SWIDTH 589 0
DWIDTH 9 0
BBX 9 12 0 0
BITMAP
0600
0A00
1000
1000
1000
1C00
E000
2E00
F000
2080
2100
1E00
ENDCHAR
STARTCHAR trademark
ENCODING 8482
SWIDTH 1278 0
DWIDTH 20 0
BBX 20 12 0 0
BITMAP
003020
1FF060
E42860
042860
0424A0
0424A0
0422A0
021320
021120
021010
021010
021010
ENDCHAR
STARTCHAR minus
ENCODING 8722
SWIDTH 358 0
DWIDTH 6 0
BBX 4 1 1 4
BITMAP
F0
ENDCHAR
STARTCHAR commaaccent
ENCODING 63171
SWIDTH 450 0
DWIDTH 7 0
BBX 1 3 3 -5
BITMAP
80
80
80
ENDCHAR
STARTCHAR fi
ENCODING 64257
SWIDTH 409 0
DWIDTH 7 0
BBX 6 14 0 0
BITMAP
30
28
28
20
40
44
5C
64
A4
24
24
24
24
24
ENDCHAR
STARTCHAR fl
ENCODING 64258
SWIDTH 416 0
DWIDTH 7 0
BBX 6 14 0 0
BITMAP
30
2C
24
24
44
44
5C
64
A4
24
24
24
24
24
ENDCHAR
STARTCHAR .notdef
ENCODING -1
SWIDTH 450 0
DWIDTH 7 0
BBX 1 1 0 0
BITMAP
00
ENDCHAR
STARTCHAR .null
ENCODING -1
SWIDTH 0 0
DWIDTH 0 0
BBX 1 1 0 0
BITMAP
00
ENDCHAR
STARTCHAR nonmarkingreturn
ENCODING -1
SWIDTH 450 0
DWIDTH 7 0
BBX 1 1 0 0
BITMAP
00
ENDCHAR
ENDFONT
